<svg width="16" height="16" viewBox="0 0 16 16" xmlns="http://www.w3.org/2000/svg"><path d="M6.506.14C6.576.9 7.22 1.5 8 1.5c.78 0 1.423-.598 1.494-1.36 1.098.207 2.118.64 3.008 1.246-.49.59-.458 1.465.094 2.018.553.552 1.43.584 2.018.094.607.89 1.04 1.91 1.247 3.008-.762.07-1.36.713-1.36 1.494 0 .78.598 1.423 1.36 1.494-.207 1.098-.64 2.118-1.246 3.008-.59-.49-1.465-.458-2.018.094-.552.553-.584 1.43-.094 2.018-.89.607-1.91 1.04-3.008 1.247C9.424 15.1 8.78 14.5 8 14.5c-.78 0-1.423.598-1.494 1.36-1.098-.207-2.118-.64-3.008-1.246.49-.59.458-1.465-.094-2.018-.553-.552-1.43-.584-2.018-.094-.607-.89-1.04-1.91-1.247-3.008C.9 9.424 1.5 8.78 1.5 8c0-.78-.598-1.423-1.36-1.494.207-1.098.64-2.118 1.246-3.008.59.49 1.465.458 2.018-.094.552-.553.584-1.43.094-2.018C4.388.78 5.408.346 6.506.14zM1.783 11.22c.81-.186 1.696.037 2.328.67.633.63.856 1.516.67 2.327.35.182.718.335 1.1.456C6.324 13.97 7.108 13.5 8 13.5s1.677.47 2.12 1.173c.382-.12.75-.274 1.1-.456-.186-.81.037-1.696.67-2.328.63-.633 1.516-.856 2.327-.67.182-.35.335-.718.456-1.1C13.97 9.676 13.5 8.892 13.5 8s.47-1.677 1.173-2.12c-.12-.382-.274-.75-.456-1.1-.81.186-1.696-.037-2.328-.67-.633-.63-.856-1.516-.67-2.327-.35-.182-.718-.335-1.1-.456C9.676 2.03 8.892 2.5 8 2.5s-1.677-.47-2.12-1.173c-.382.12-.75.274-1.1.456.186.81-.037 1.696-.67 2.328-.63.633-1.516.856-2.327.67-.182.35-.335.718-.456 1.1C2.03 6.324 2.5 7.108 2.5 8s-.47 1.677-1.173 2.12c.12.382.274.75.456 1.1zM8 11c-1.657 0-3-1.343-3-3s1.343-3 3-3 3 1.343 3 3-1.343 3-3 3zm0-1c1.105 0 2-.895 2-2s-.895-2-2-2-2 .895-2 2 .895 2 2 2z" fill="#6782b2" fill-rule="evenodd"/></svg>
